<svg xmlns="http://www.w3.org/2000/svg" viewBox="0 0 2755.96 500"><defs><style>.a{fill:#fff;}</style></defs><title>af_w</title><path class="a" d="M6,375H0L149.5,25l5.5-2.5L281,375H238.5l-39-110H53.5ZM134,79,55.5,260H198Z"/><path class="a" d="M368.5,0V249l110-124h5L402,217,509.5,375h-35L382,239l-13.5,15.5V375h-35V0Z"/><path class="a" d="M560.5,69a20.35,20.35,0,0,1-6-15,21.2,21.2,0,0,1,6-15.25,20,20,0,0,1,15-6.25A21.34,21.34,0,0,1,597,54a20,20,0,0,1-6.25,15,21.22,21.22,0,0,1-15.25,6A20.35,20.35,0,0,1,560.5,69Zm40,306q-20.52,0-31.25-9T558,348l-.5-8.5V125h35V339.5q0,14.5,5.75,22.25T609.5,370l6,1H631v4Z"/><path class="a" d="M891,375q-20.5,0-31.25-9t-11.25-18l-.5-8.5v-157q0-39.5-20.5-50.5-10.5-5-26-5-32,0-57.5,25.25t-25.5,45.25V375h-35V125h35v57q8.5-21.5,31.5-40.25T800.49,123q27.5,0,44.75,5.25T870.49,143Q883,158.51,883,183V339.5q0,14.5,5.75,22.25T900.49,370l5.5,1h15.5v4Z"/><path class="a" d="M1155.49,375q-34,0-46.5-13-11.52-11-11.5-19V332.5Q1073,377,1019,377q-63,0-71.5-57a72.94,72.94,0,0,1-1-12.25,53.46,53.46,0,0,1,2-13.75q2-7.5,11.5-16.5,19-18,83.5-22,16-1.5,29.5-1.5t24.5,1V172q-1-.5,0-4.75t-1.75-11a69.66,69.66,0,0,0-7.25-13.25q-4.5-6.5-16-11.25t-30-4.75q-18.51,0-43.25,6.75T963,147l-2-3.5q44.49-20.49,90.5-20.5,51.48,0,68,18.5,13,14.5,13,30.5V339.5q0,14.5,5.75,22.25c3.82,5.17,7.75,7.92,11.75,8.25l5.5,1H1171v4ZM1027,373q26.49,0,47.75-18.25t22.75-35.25V259q-13.5-1-27.25-1a246.39,246.39,0,0,0-27.25,1.5q-38,4.5-49.5,17T982,311a89.2,89.2,0,0,0,.5,9Q987,373,1027,373Z"/><path class="a" d="M1188.48,259q0-65,31.5-100.5t94.5-35.5q46.5,0,94.5,16.5V381q-.49,119-104,119-57,0-97.5-37l3.5-3q43,36,94,36,69,0,69-115V331.5q-9.49,17.5-31.5,31t-52,13.5Q1188.48,373.51,1188.48,259ZM1291,372q33.49,0,57.5-18t25.5-35.5V142q-36-15-61-15-44.51,0-67,34.75T1223.48,259Q1223.48,372,1291,372Z"/><path class="a" d="M1675.48,375q-34,0-46.5-13-11.51-11-11.5-19V332.5Q1593,377,1539,377q-63,0-71.5-57a74,74,0,0,1-1-12.25,53.46,53.46,0,0,1,2-13.75q2-7.5,11.5-16.5,19-18,83.5-22,16-1.5,29.5-1.5t24.5,1V172q-1-.5,0-4.75t-1.75-11a69.66,69.66,0,0,0-7.25-13.25q-4.5-6.5-16-11.25t-30-4.75q-18.51,0-43.25,6.75T1483,147l-2-3.5q44.49-20.49,90.5-20.5,51.49,0,68,18.5,13,14.5,13,30.5V339.5q0,14.5,5.75,22.25T1670,370l5.5,1H1691v4ZM1547,373q26.49,0,47.75-18.25t22.75-35.25V259q-13.5-1-27.25-1a246.53,246.53,0,0,0-27.25,1.5q-38,4.5-49.5,17T1502,311a89.2,89.2,0,0,0,.5,9Q1507,373,1547,373Z"/><path class="a" d="M2117,25v5h-157.5V190h146v5h-146V375H1918V25Z"/><path class="a" d="M2202,317.5q0,39.51,21,50.5,10,5,25.5,5,31.5,0,56.25-24t26.75-44.5V125h35V339.5q0,14.5,5.75,22.25T2384,370l5.5,1H2405v4h-30.5q-20.5,0-31.25-9T2332,348l-.5-8.5V318q-9,21.51-32,40.25T2249.22,377q-27.25,0-44.5-5.25T2180,357q-13-15.5-13-40V125h35Z"/><path class="a" d="M2372.46,490.5l1.5-4q24,9.5,47.25,9.5t30.5-14.5q7.24-14.5,7.25-47V125h35V434q0,39.5-16,52.75T2429.71,500Q2397.46,500,2372.46,490.5Zm89-421.5a20.35,20.35,0,0,1-6-15,21.2,21.2,0,0,1,6-15.25,20,20,0,0,1,15-6.25A21.34,21.34,0,0,1,2498,54a19.92,19.92,0,0,1-6.25,15,21.2,21.2,0,0,1-15.25,6A20.35,20.35,0,0,1,2461.46,69Z"/><path class="a" d="M2571.46,69a20.35,20.35,0,0,1-6-15,21.2,21.2,0,0,1,6-15.25,20,20,0,0,1,15-6.25A21.34,21.34,0,0,1,2608,54a20,20,0,0,1-6.25,15,21.2,21.2,0,0,1-15.25,6A20.35,20.35,0,0,1,2571.46,69Zm40,306q-20.51,0-31.25-9T2569,348l-.5-8.5V125h35V339.5q0,14.5,5.75,22.25t11.25,8.25l6,1H2642v4Z"/><path class="a" d="M2685.46,69a20.35,20.35,0,0,1-6-15,21.2,21.2,0,0,1,6-15.25,20,20,0,0,1,15-6.25A21.34,21.34,0,0,1,2722,54a20,20,0,0,1-6.25,15,21.22,21.22,0,0,1-15.25,6A20.35,20.35,0,0,1,2685.46,69Zm40,306q-20.52,0-31.25-9T2683,348l-.5-8.5V125h35V339.5q0,14.5,5.75,22.25t11.25,8.25l6,1H2756v4Z"/></svg>