<?xml version="1.0" encoding="utf-8"?>
<!-- Generator: Adobe Illustrator 24.0.0, SVG Export Plug-In . SVG Version: 6.00 Build 0)  -->
<svg version="1.1" id="Alto_Fotografie" xmlns="http://www.w3.org/2000/svg" xmlns:xlink="http://www.w3.org/1999/xlink" x="0px"
	 y="0px" viewBox="0 0 3089.7 500" style="enable-background:new 0 0 3089.7 500;" xml:space="preserve">
<style type="text/css">
	.st0{fill:#FFFFFF;}
</style>
<path id="a" class="st0" d="M6,375H0L149.5,25l5.5-2.5L281,375h-42.5l-39-110h-146L6,375z M134,79L55.5,260H198L134,79z"/>
<path id="l" class="st0" d="M374.5,375c-29.3,0-47.8-7.7-55.5-23c-1.7-3.3-2.5-6.3-2.5-9V0.5h35v339c0,9.7,1.9,17.1,5.8,22.3
	c3.8,5.2,7.7,7.9,11.7,8.2l5.5,1H390v4H374.5z"/>
<path id="t" class="st0" d="M425,129v-4h10.5V75h35v50H547v4h-76.5v182c0,21.7,2.4,37.3,7.2,47c4.8,9.7,15,14.5,30.5,14.5
	s31.2-3.2,47.3-9.5l1.5,4c-16.7,6.3-35.7,9.5-57.2,9.5s-37.6-4.4-48.2-13.2c-10.7-8.8-16-26.4-16-52.8V129H425z"/>
<path id="_x30_" class="st0" d="M688.2,377c-35.2,0-63.8-10-85.8-30s-33-50.8-33-92.5s11.4-74,34.3-97c22.8-23,51.8-34.5,87-34.5
	s63.7,10,85.7,30s33,50.8,33,92.5s-11.4,74-34.3,97C752.4,365.5,723.4,377,688.2,377z M691.5,127c-25.3,0-46.3,11.3-63,33.8
	s-25,53.8-25,94s7.7,69.9,23,89.3c15.3,19.3,35.7,29,61,29s46.3-11.3,63-33.7c16.7-22.5,25-53.8,25-94s-7.7-69.9-23-89.2
	C737.2,136.7,716.8,127,691.5,127z"/>
<path id="f" class="st0" d="M1213,25v5h-157.5v160h146v5h-146v180H1014V25H1213z"/>
<path id="o" class="st0" d="M1359.2,377c-35.2,0-63.8-10-85.8-30s-33-50.8-33-92.5s11.4-74,34.3-97c22.8-23,51.8-34.5,87-34.5
	s63.7,10,85.7,30s33,50.8,33,92.5s-11.4,74-34.2,97S1394.4,377,1359.2,377z M1362.5,127c-25.3,0-46.3,11.3-63,33.8s-25,53.8-25,94
	s7.7,69.9,23,89.3c15.3,19.3,35.7,29,61,29s46.3-11.3,63-33.7c16.7-22.5,25-53.8,25-94s-7.7-69.9-23-89.2
	C1408.2,136.7,1387.8,127,1362.5,127z"/>
<path id="t_1_" class="st0" d="M1518,129v-4h10.5V75h35v50h76.5v4h-76.5v182c0,21.7,2.4,37.3,7.2,47c4.8,9.7,15,14.5,30.5,14.5
	s31.2-3.2,47.3-9.5l1.5,4c-16.7,6.3-35.7,9.5-57.2,9.5s-37.6-4.4-48.3-13.2c-10.7-8.8-16-26.4-16-52.8V129H1518z"/>
<path id="o_1_" class="st0" d="M1781.3,377c-35.2,0-63.8-10-85.7-30c-22-20-33-50.8-33-92.5s11.4-74,34.3-97
	c22.8-23,51.8-34.5,87-34.5s63.8,10,85.7,30c22,20,33,50.8,33,92.5s-11.4,74-34.2,97C1845.4,365.5,1816.4,377,1781.3,377z
	 M1784.5,127c-25.3,0-46.3,11.3-63,33.8s-25,53.8-25,94s7.7,69.9,23,89.3c15.3,19.3,35.7,29,61,29s46.3-11.3,63-33.7
	c16.7-22.5,25-53.8,25-94s-7.7-69.9-23-89.2C1830.2,136.7,1809.8,127,1784.5,127z"/>
<path id="g" class="st0" d="M1940,259c0-43.3,10.5-76.8,31.5-100.5S2024,123,2066,123c31,0,62.5,5.5,94.5,16.5V381
	c-0.3,79.3-35,119-104,119c-38,0-70.5-12.3-97.5-37l3.5-3c28.7,24,60,36,94,36c46,0,69-38.3,69-115v-49.5c-6.3,11.7-16.8,22-31.5,31
	s-32,13.5-52,13.5C1974,374.3,1940,335.3,1940,259z M2042.5,372c22.3,0,41.5-6,57.5-18s24.5-23.8,25.5-35.5V142
	c-24-10-44.3-15-61-15c-29.7,0-52,11.6-67,34.8s-22.5,55.6-22.5,97.3C1975,334.3,1997.5,372,2042.5,372z"/>
<path id="r" class="st0" d="M2318.5,146.5V136c-15,6-28.7,18.1-41,36.2c-12.3,18.2-18.8,35.3-19.5,51.2V375h-35V125h35v79.5
	c5.3-19.3,15.5-37.6,30.5-54.7c15-17.2,32-26.1,51-26.7h2c6.7,0,12.3,2.2,16.8,6.7s6.8,10.1,6.8,16.8s-2.3,12.2-6.8,16.5
	s-10.1,6.5-16.8,6.5s-12.2-2.2-16.5-6.5C2320.7,158.7,2318.5,153.2,2318.5,146.5z"/>
<path id="a_1_" class="st0" d="M2594,375c-22.7,0-38.2-4.3-46.5-13c-7.7-7.3-11.5-13.7-11.5-19v-10.5
	c-16.3,29.7-42.5,44.5-78.5,44.5c-42,0-65.8-19-71.5-57c-0.7-4-1-8.1-1-12.3c0-4.2,0.7-8.8,2-13.7c1.3-5,5.2-10.5,11.5-16.5
	c12.7-12,40.5-19.3,83.5-22c10.7-1,20.5-1.5,29.5-1.5s17.2,0.3,24.5,1v-83c-0.7-0.3-0.7-1.9,0-4.8c0.7-2.8,0.1-6.5-1.8-11
	c-1.8-4.5-4.2-8.9-7.2-13.3c-3-4.3-8.3-8.1-16-11.2c-7.7-3.2-17.7-4.8-30-4.8s-26.8,2.2-43.2,6.7c-16.5,4.5-28.6,8.9-36.3,13.3
	l-2-3.5c29.7-13.7,59.8-20.5,90.5-20.5c34.3,0,57,6.2,68,18.5c8.7,9.7,13,19.8,13,30.5v167.5c0,9.7,1.9,17.1,5.7,22.3
	c3.8,5.2,7.8,7.9,11.8,8.2l5.5,1h15.5v4H2594V375z M2465.5,373c17.7,0,33.6-6.1,47.7-18.2c14.2-12.2,21.8-23.9,22.8-35.3V259
	c-9-0.7-18.1-1-27.3-1s-18.2,0.5-27.2,1.5c-25.3,3-41.8,8.7-49.5,17s-11.5,19.8-11.5,34.5c0,2.7,0.2,5.7,0.5,9
	C2424,355.3,2438.8,373,2465.5,373z"/>
<path id="f_1_" class="st0" d="M2680,101.5V125h39.5v4H2680v246h-35V129h-10.5v-4h10.5v-23.5c0-36.3,7.8-62.2,23.5-77.7
	s41-23.4,76-23.8v4c-23,0.3-39.5,8.1-49.5,23.3C2685,42.4,2680,67.2,2680,101.5z"/>
<path id="i" class="st0" d="M2765.5,69c-4-4-6-9-6-15s2-11.1,6-15.2c4-4.2,9-6.2,15-6.2s11.1,2.1,15.3,6.2c4.2,4.2,6.2,9.3,6.2,15.2
	s-2.1,11-6.2,15c-4.2,4-9.2,6-15.3,6C2774.5,75,2769.5,73,2765.5,69z M2805.5,375c-13.7,0-24.1-3-31.2-9c-7.2-6-10.9-12-11.3-18
	l-0.5-8.5V125h35v214.5c0,9.7,1.9,17.1,5.8,22.3c3.8,5.2,7.6,7.9,11.2,8.2l6,1h15.5v4H2805.5z"/>
<path id="e" class="st0" d="M2909.9,253.1c0,41.3,7.2,71.6,21.7,90.9s33.5,29,57.2,29c33.3,0,62.9-5,88.9-15l1.5,3.5
	c-26.6,10.3-56.7,15.5-90.1,15.5s-60.7-10-81.7-30s-31.5-50.8-31.5-92.4s11-73.9,33-96.9s49.9-34.5,83.9-34.5
	c27.3,0,50.3,8.2,68.9,24.5c18.6,16.3,28,40.5,28,72.4c0,1.7,0,3.3,0,5h-178.3C2910.4,234.2,2909.9,243.5,2909.9,253.1z
	 M3037.3,150.3c-12-15.3-27.5-23-46.4-23c-19,0-35.9,8.3-50.7,25s-24.2,39.6-28.2,68.9h143.8
	C3055.4,189.2,3049.3,165.6,3037.3,150.3z"/>
</svg>
