<svg xmlns="http://www.w3.org/2000/svg" viewBox="0 0 2078.48 377"><title>artworks</title><path d="M6,375H0L149.5,25l5.5-2.5L281,375H238.5l-39-110H53.5ZM134,79,55.5,260H198Z"/><path d="M414,146.5V136q-22.5,9-41,36.25T353.5,223.5V375h-35V125h35v79.5q8-29,30.5-54.75T435,123h2a23.06,23.06,0,0,1,23.5,23.5,21.91,21.91,0,0,1-6.75,16.5A23.19,23.19,0,0,1,437,169.5q-10,0-16.5-6.5T414,146.5Z"/><path d="M498,129v-4h10.5V75h35v50H620v4h-76.5V311q0,32.5,7.25,47t30.5,14.5q23.25,0,47.25-9.5l1.5,4q-25,9.51-57.25,9.5t-48.25-13.25q-16-13.25-16-52.75V129Z"/><path d="M1166.49,128l3-3q2,1,5.25,6a25.85,25.85,0,0,1,4,9,40.87,40.87,0,0,1,.75,7.5,69.47,69.47,0,0,1-6,27.5l-91,200h-5l-72-193.5-88,193.5h-5l-93-250h35L931,332l72-156.5L984.49,125h35L1096,332l72.5-157q6-10.5,6-25T1166.49,128Z"/><path d="M1338.24,377q-52.76,0-85.75-30t-33-92.5q0-62.49,34.25-97t87-34.5q52.74,0,85.75,30t33,92.5q0,62.51-34.25,97T1338.24,377Zm3.25-250q-38,0-63,33.75t-25,94q0,60.26,23,89.25t61,29q38,0,63-33.75t25-94q0-60.24-23-89.25T1341.49,127Z"/><path d="M1597.49,146.5V136q-22.5,9-41,36.25T1537,223.5V375h-35V125h35v79.5q8-29,30.5-54.75t51-26.75h2a23.06,23.06,0,0,1,23.5,23.5,21.91,21.91,0,0,1-6.75,16.5,23.19,23.19,0,0,1-16.75,6.5q-10,0-16.5-6.5T1597.49,146.5Z"/><path d="M1724,0V249l110-124h5l-81.5,92L1865,375h-35l-92.5-136L1724,254.5V375h-35V0Z"/><path d="M2051,142.5q-8-6.5-25.75-11t-26.75-4.5H1988q-27,.51-39,13.75t-12,29.75q0,16.5,10.5,27.75a71.12,71.12,0,0,0,26.25,17.5q15.75,6.25,34,14.25t34,16.25a70.8,70.8,0,0,1,26.25,24q10.5,15.75,10.5,39.25a54.47,54.47,0,0,1-16.5,40q-16.5,16.5-36.75,22a166.69,166.69,0,0,1-43.75,5.5q-51,0-76.5-22.5l3-3q10,9.51,29.75,15.5a131.37,131.37,0,0,0,38.25,6q29.51,0,48.75-16.25t19.25-40.5q0-24.24-14.5-39a101.16,101.16,0,0,0-35.25-23q-20.74-8.25-41.75-16.5a100.53,100.53,0,0,1-35.5-23q-14.51-14.75-14.5-34.25t9-31.75a47.77,47.77,0,0,1,24-17.25,160.62,160.62,0,0,1,51-8.5q43,0,67,16Z"/></svg>