<svg xmlns="http://www.w3.org/2000/svg" viewBox="0 0 1564.98 352"><title>portrait</title><path d="M0,4Q58,0,102,0,226,0,226,87.5q0,40.5-21,71-11,16.5-34,26.25t-55.5,9.75h-74V350H0ZM102.5,5a562.56,562.56,0,0,0-61,3.5v181h74q70.5-3,70.5-101,0-40-21-61.75T102.5,5Z"/><path d="M352.25,352q-52.77,0-85.75-30t-33-92.5q0-62.49,34.25-97t87-34.5q52.74,0,85.75,30t33,92.5q0,62.51-34.25,97T352.25,352Zm3.25-250q-38,0-63,33.75t-25,94q0,60.26,23,89.25t61,29q38,0,63-33.75t25-94q0-60.24-23-89.25T355.5,102Z"/><path d="M621.49,121.5V111q-22.5,9-41,36.25T561,198.5V350H526V100h35v79.5q8-29,30.5-54.75t51-26.75h2A23.06,23.06,0,0,1,668,121.5a21.91,21.91,0,0,1-6.75,16.5,23.17,23.17,0,0,1-16.75,6.5q-10,0-16.5-6.5T621.49,121.5Z"/><path d="M715.49,104v-4H726V50h35v50h76.5v4H761V286q0,32.5,7.25,47t30.5,14.5Q822,347.5,846,338l1.5,4q-25,9.51-57.25,9.5T742,338.25Q726,325,726,285.5V104Z"/><path d="M983,121.5V111q-22.5,9-41,36.25t-19.5,51.25V350h-35V100h35v79.5q8-29,30.5-54.75T1004,98h2a23.06,23.06,0,0,1,23.5,23.5,21.91,21.91,0,0,1-6.75,16.5,23.19,23.19,0,0,1-16.75,6.5q-10,0-16.5-6.5T983,121.5Z"/><path d="M1266,350q-34,0-46.5-13Q1208,326,1208,318V307.5q-24.51,44.51-78.5,44.5-63,0-71.5-57a74,74,0,0,1-1-12.25,53.46,53.46,0,0,1,2-13.75q2-7.5,11.5-16.5,19-18,83.5-22,16-1.5,29.5-1.5t24.5,1V147q-1-.5,0-4.75t-1.75-11A69.66,69.66,0,0,0,1199,118q-4.5-6.5-16-11.25T1153,102q-18.51,0-43.25,6.75T1073.49,122l-2-3.5Q1116,98,1162,98q51.49,0,68,18.5,13,14.5,13,30.5V314.5q0,14.5,5.75,22.25t11.75,8.25l5.5,1h15.5v4Zm-128.5-2q26.49,0,47.75-18.25T1208,294.5V234q-13.5-1-27.25-1a246.53,246.53,0,0,0-27.25,1.5q-38,4.5-49.5,17t-11.5,34.5a89.2,89.2,0,0,0,.5,9Q1097.49,348,1137.49,348Z"/><path d="M1322.49,44a20.35,20.35,0,0,1-6-15,21.2,21.2,0,0,1,6-15.25,20,20,0,0,1,15-6.25,20.8,20.8,0,0,1,15.25,6.25A20.78,20.78,0,0,1,1359,29a20,20,0,0,1-6.25,15,21.22,21.22,0,0,1-15.25,6A20.35,20.35,0,0,1,1322.49,44Zm40,306q-20.52,0-31.25-9T1320,323l-.5-8.5V100h35V314.5q0,14.5,5.75,22.25t11.25,8.25l6,1H1393v4Z"/><path d="M1433,104v-4h10.5V50h35v50H1555v4h-76.5V286q0,32.5,7.25,47t30.5,14.5q23.25,0,47.25-9.5l1.5,4q-25,9.51-57.25,9.5t-48.25-13.25q-16-13.25-16-52.75V104Z"/></svg>