<svg xmlns="http://www.w3.org/2000/svg" viewBox="0 0 1870.97 376.5"><title>products</title><path d="M0,28.5q58-4,102-4,124,0,124,87.5,0,40.5-21,71-11,16.5-34,26.25T115.5,219h-74V374.5H0Zm102.5,1a562.56,562.56,0,0,0-61,3.5V214h74Q186,211,186,113q0-40-21-61.75T102.5,29.5Z"/><path d="M369,146V135.5q-22.5,9-41,36.25T308.5,223V374.5h-35v-250h35V204q8-29,30.5-54.75t51-26.75h2A23.06,23.06,0,0,1,415.5,146a21.91,21.91,0,0,1-6.75,16.5A23.19,23.19,0,0,1,392,169q-10,0-16.5-6.5T369,146Z"/><path d="M564.24,376.5q-52.75,0-85.75-30t-33-92.5q0-62.49,34.25-97t87-34.5q52.75,0,85.75,30t33,92.5q0,62.51-34.25,97T564.24,376.5Zm3.25-250q-38,0-63,33.75t-25,94q0,60.26,23,89.25t61,29q38,0,63-33.75t25-94q0-60.24-23-89.25T567.49,126.5Z"/><path d="M728,258.5q0-65,31.5-100.5T854,122.5q29.49,0,59.5,15V0h35V339q0,14.5,5.75,22.25T966,369.5l5.5,1H987v4h-30.5q-20.5,0-31.25-9T914,347.5l-.5-8.5v-8Q904,348.51,882,362t-52,13.5Q728,373,728,258.5Zm102.5,113q33.5,0,57.5-18t25.5-35.5V142q-35.5-15.5-61-15.5-44.5,0-67,34.75T763,258.5Q763,371.51,830.49,371.5Z"/><path d="M1054.49,317q0,39.51,21,50.5,10,5,25.5,5,31.5,0,56.25-24T1184,304V124.5h35V339q0,14.5,5.75,22.25c3.82,5.17,7.75,7.92,11.75,8.25l5.5,1h15.5v4H1227q-20.52,0-31.25-9t-11.25-18l-.5-8.5V317.5q-9,21.51-32,40.25t-50.25,18.75q-27.27,0-44.5-5.25t-24.75-14.75q-13-15.5-13-40v-192h35Z"/><path d="M1402,126.5q-35.51,0-59.25,34t-23.75,94q0,60,21.75,89t57.25,29q44.49,0,79-15l1.5,3.5q-35.51,15.51-83,15.5t-79-30q-31.5-30-31.5-92.5t33-97q33-34.5,84-34.5a110,110,0,0,1,52.75,13q24.24,13,35.75,39.5h-32q-7.5-24.5-22.75-36.5T1402,126.5Z"/><path d="M1535.47,128.5v-4H1546v-50h35v50h76.5v4H1581v182q0,32.5,7.25,47t30.5,14.5q23.25,0,47.25-9.5l1.5,4q-25,9.51-57.25,9.5T1562,362.75q-16-13.25-16-52.75V128.5Z"/><path d="M1843.47,142q-8-6.5-25.75-11T1791,126.5h-10.5q-27,.51-39,13.75t-12,29.75q0,16.5,10.5,27.75a71.12,71.12,0,0,0,26.25,17.5q15.75,6.25,34,14.25t34,16.25a70.8,70.8,0,0,1,26.25,24Q1871,285.5,1871,309a54.47,54.47,0,0,1-16.5,40q-16.5,16.5-36.75,22a166.69,166.69,0,0,1-43.75,5.5q-51,0-76.5-22.5l3-3q10,9.51,29.75,15.5a131.37,131.37,0,0,0,38.25,6q29.51,0,48.75-16.25t19.25-40.5q0-24.24-14.5-39a101.16,101.16,0,0,0-35.25-23Q1766,245.5,1745,237.25a100.53,100.53,0,0,1-35.5-23Q1695,199.51,1695,180t9-31.75A47.77,47.77,0,0,1,1728,131a160.62,160.62,0,0,1,51-8.5q43,0,67,16Z"/></svg>